# Blender v3.0.1 OBJ File: 'main level.blend'
# www.blender.org
mtllib goal wall 1.mtl
o goal_1_Cube.008
v 230.000000 1.000002 64.500000
v 230.000000 68.875000 64.500000
v 230.000000 1.000002 -64.500000
v 230.000000 68.875000 -64.500000
v 330.000000 1.000002 64.500000
v 330.000000 68.875000 64.500000
v 330.000000 1.000002 -64.500000
v 330.000000 68.875000 -64.500000
v 230.000000 1.000002 -53.749996
v 230.000000 1.000002 53.750000
v 230.000000 68.875000 53.749996
v 230.000000 68.875000 42.999996
v 230.000000 68.875000 32.250000
v 230.000000 68.875000 21.500000
v 230.000000 68.875000 10.750000
v 230.000000 68.875000 0.000000
v 230.000000 68.875000 -10.750000
v 230.000000 68.875000 -21.500000
v 230.000000 68.875000 -32.250000
v 230.000000 68.875000 -43.000000
v 230.000000 68.875000 -53.750000
v 330.000000 1.000002 53.749996
v 330.000000 1.000002 -53.750000
v 330.000000 68.875000 -53.749996
v 330.000000 68.875000 -42.999996
v 330.000000 68.875000 -32.250000
v 330.000000 68.875000 -21.500000
v 330.000000 68.875000 -10.750000
v 330.000000 68.875000 0.000000
v 330.000000 68.875000 10.750000
v 330.000000 68.875000 21.500000
v 330.000000 68.875000 32.250000
v 330.000000 68.875000 43.000000
v 330.000000 68.875000 53.750000
v 230.000000 9.120762 64.500000
v 230.000000 17.605137 64.500000
v 230.000000 26.089512 64.500000
v 230.000000 34.573887 64.500000
v 230.000000 43.058258 64.500000
v 230.000000 51.542637 64.500000
v 230.000000 60.027008 64.500000
v 230.000000 60.027008 -64.500000
v 230.000000 51.542633 -64.500000
v 230.000000 43.058258 -64.500000
v 230.000000 34.573887 -64.500000
v 230.000000 26.089512 -64.500000
v 230.000000 17.605137 -64.500000
v 230.000000 9.120762 -64.500000
v 330.000000 60.027008 -64.500000
v 330.000000 51.542633 -64.500000
v 330.000000 43.058258 -64.500000
v 330.000000 34.573887 -64.500000
v 330.000000 26.089512 -64.500000
v 330.000000 17.605137 -64.500000
v 330.000000 9.120762 -64.500000
v 330.000000 60.027008 64.500000
v 330.000000 51.542633 64.500000
v 330.000000 43.058258 64.500000
v 330.000000 34.573887 64.500000
v 330.000000 26.089512 64.500000
v 330.000000 17.605137 64.500000
v 330.000000 9.120762 64.500000
v 330.000000 60.027008 -53.749996
v 330.000000 51.542633 -53.749996
v 330.000000 43.058258 -53.749996
v 330.000000 34.573887 -53.749996
v 330.000000 26.089512 -53.749996
v 330.000000 17.605137 -53.749996
v 330.000000 9.120762 -53.749996
v 330.000000 60.027008 -42.999996
v 330.000000 60.027008 -32.250000
v 330.000000 60.027008 -21.500000
v 330.000000 60.027008 -10.750000
v 330.000000 60.027008 0.000000
v 330.000000 60.027008 10.750000
v 330.000000 60.027008 21.500000
v 330.000000 60.027008 32.250000
v 330.000000 60.027008 43.000000
v 330.000000 60.027008 53.750000
v 330.000000 51.542633 53.750000
v 330.000000 43.058258 53.750000
v 330.000000 34.573887 53.750000
v 330.000000 26.089512 53.750000
v 330.000000 17.605137 53.750000
v 330.000000 9.120762 53.749996
v 230.000000 60.027008 53.749996
v 230.000000 51.542633 53.749996
v 230.000000 43.058258 53.749996
v 230.000000 34.573887 53.749996
v 230.000000 26.089512 53.749996
v 230.000000 17.605137 53.749996
v 230.000000 9.120762 53.749996
v 230.000000 60.027008 42.999996
v 230.000000 60.027008 32.250000
v 230.000000 60.027008 21.500000
v 230.000000 60.027008 10.750000
v 230.000000 60.027008 0.000000
v 230.000000 60.027008 -10.750000
v 230.000000 60.027008 -21.500000
v 230.000000 60.027008 -32.250000
v 230.000000 60.027008 -43.000000
v 230.000000 60.027008 -53.750000
v 230.000000 51.542633 -53.750000
v 230.000000 43.058258 -53.750000
v 230.000000 34.573887 -53.750000
v 230.000000 26.089512 -53.750000
v 230.000000 17.605137 -53.750000
v 230.000000 9.120762 -53.749996
vt 0.592411 0.229167
vt 0.625000 0.229167
vt 0.625000 0.250000
vt 0.592411 0.250000
vt 0.625000 0.500000
vt 0.592411 0.500000
vt 0.592411 0.729167
vt 0.625000 0.729167
vt 0.625000 0.750000
vt 0.592411 0.750000
vt 0.625000 1.000000
vt 0.592411 1.000000
vt 0.125000 0.729167
vt 0.375000 0.729167
vt 0.375000 0.750000
vt 0.125000 0.750000
vt 0.875000 0.729167
vt 0.875000 0.750000
vt 0.875000 0.500000
vt 0.875000 0.520833
vt 0.625000 0.520833
vt 0.875000 0.541667
vt 0.625000 0.541667
vt 0.875000 0.562500
vt 0.625000 0.562500
vt 0.875000 0.583333
vt 0.625000 0.583333
vt 0.875000 0.604167
vt 0.625000 0.604167
vt 0.875000 0.625000
vt 0.625000 0.625000
vt 0.875000 0.645833
vt 0.625000 0.645833
vt 0.875000 0.666667
vt 0.625000 0.666667
vt 0.875000 0.687500
vt 0.625000 0.687500
vt 0.875000 0.708333
vt 0.625000 0.708333
vt 0.125000 0.500000
vt 0.375000 0.500000
vt 0.375000 0.520833
vt 0.125000 0.520833
vt 0.592411 0.520833
vt 0.592411 0.541667
vt 0.592411 0.562500
vt 0.592411 0.583333
vt 0.592411 0.604167
vt 0.592411 0.625000
vt 0.592411 0.645833
vt 0.592411 0.666667
vt 0.592411 0.687500
vt 0.592411 0.708333
vt 0.592411 0.000000
vt 0.625000 0.000000
vt 0.625000 0.020833
vt 0.592411 0.020833
vt 0.625000 0.041667
vt 0.592411 0.041667
vt 0.625000 0.062500
vt 0.592411 0.062500
vt 0.625000 0.083333
vt 0.592411 0.083333
vt 0.625000 0.104167
vt 0.592411 0.104167
vt 0.625000 0.125000
vt 0.592411 0.125000
vt 0.625000 0.145833
vt 0.592411 0.145833
vt 0.625000 0.166667
vt 0.592411 0.166667
vt 0.625000 0.187500
vt 0.592411 0.187500
vt 0.625000 0.208333
vt 0.592411 0.208333
vt 0.375000 0.000000
vt 0.404911 0.000000
vt 0.404911 0.020833
vt 0.375000 0.020833
vt 0.436161 0.000000
vt 0.436161 0.020833
vt 0.467411 0.000000
vt 0.467411 0.020833
vt 0.498661 0.000000
vt 0.498661 0.020833
vt 0.529911 0.000000
vt 0.529911 0.020833
vt 0.561161 0.000000
vt 0.561161 0.020833
vt 0.404911 0.500000
vt 0.404911 0.520833
vt 0.436161 0.500000
vt 0.436161 0.520833
vt 0.467411 0.500000
vt 0.467411 0.520833
vt 0.498661 0.500000
vt 0.498661 0.520833
vt 0.529911 0.500000
vt 0.529911 0.520833
vt 0.561161 0.500000
vt 0.561161 0.520833
vt 0.404911 0.750000
vt 0.404911 1.000000
vt 0.375000 1.000000
vt 0.436161 0.750000
vt 0.436161 1.000000
vt 0.467411 0.750000
vt 0.467411 1.000000
vt 0.498661 0.750000
vt 0.498661 1.000000
vt 0.529911 0.750000
vt 0.529911 1.000000
vt 0.561161 0.750000
vt 0.561161 1.000000
vt 0.404911 0.729167
vt 0.436161 0.729167
vt 0.467411 0.729167
vt 0.498661 0.729167
vt 0.529911 0.729167
vt 0.561161 0.729167
vt 0.375000 0.250000
vt 0.404911 0.250000
vt 0.436161 0.250000
vt 0.467411 0.250000
vt 0.498661 0.250000
vt 0.529911 0.250000
vt 0.561161 0.250000
vt 0.375000 0.229167
vt 0.404911 0.229167
vt 0.436161 0.229167
vt 0.467411 0.229167
vt 0.498661 0.229167
vt 0.529911 0.229167
vt 0.561161 0.229167
vt 0.000000 0.000000
vt 0.000000 0.000000
vt 0.000000 0.000000
vt 0.000000 0.000000
vt 0.000000 0.000000
vt 0.000000 0.000000
vt 0.000000 0.000000
vt 0.000000 0.000000
vt 0.000000 0.000000
vt 0.000000 0.000000
vt 0.000000 0.000000
vt 0.000000 0.000000
vt 0.000000 0.000000
vt 0.000000 0.000000
vt 0.000000 0.000000
vt 0.000000 0.000000
vt 0.000000 0.000000
vt 0.000000 0.000000
vt 0.000000 0.000000
vt 0.000000 0.000000
vt 0.000000 0.000000
vt 0.000000 0.000000
vt 0.000000 0.000000
vt 0.000000 0.000000
vt 0.000000 0.000000
vt 0.000000 0.000000
vt 0.000000 0.000000
vt 0.000000 0.000000
vt 0.000000 0.000000
vt 0.000000 0.000000
vt 0.000000 0.000000
vt 0.000000 0.000000
vt 0.000000 0.000000
vt 0.000000 0.000000
vt 0.000000 0.000000
vt 0.000000 0.000000
vt 0.000000 0.000000
vt 0.000000 0.000000
vt 0.000000 0.000000
vt 0.000000 0.000000
vt 0.000000 0.000000
vt 0.000000 0.000000
vt 0.000000 0.000000
vt 0.000000 0.000000
vt 0.000000 0.000000
vt 0.000000 0.000000
vt 0.000000 0.000000
vt 0.000000 0.000000
vt 0.000000 0.000000
vt 0.000000 0.000000
vt 0.000000 0.000000
vt 0.000000 0.000000
vt 0.000000 0.000000
vt 0.000000 0.000000
vn -1.0000 0.0000 0.0000
vn 0.0000 0.0000 -1.0000
vn 1.0000 0.0000 0.0000
vn 0.0000 0.0000 1.0000
vn 0.0000 -1.0000 0.0000
vn 0.0000 1.0000 0.0000
usemtl None
s off
f 102/1/1 21/2/1 4/3/1 42/4/1
f 42/4/2 4/3/2 8/5/2 49/6/2
f 79/7/3 34/8/3 6/9/3 56/10/3
f 56/10/4 6/9/4 2/11/4 41/12/4
f 10/13/5 22/14/5 5/15/5 1/16/5
f 34/8/6 11/17/6 2/18/6 6/9/6
f 8/5/6 4/19/6 21/20/6 24/21/6
f 24/21/6 21/20/6 20/22/6 25/23/6
f 25/23/6 20/22/6 19/24/6 26/25/6
f 26/25/6 19/24/6 18/26/6 27/27/6
f 27/27/6 18/26/6 17/28/6 28/29/6
f 28/29/6 17/28/6 16/30/6 29/31/6
f 29/31/6 16/30/6 15/32/6 30/33/6
f 30/33/6 15/32/6 14/34/6 31/35/6
f 31/35/6 14/34/6 13/36/6 32/37/6
f 32/37/6 13/36/6 12/38/6 33/39/6
f 33/39/6 12/38/6 11/17/6 34/8/6
f 3/40/5 7/41/5 23/42/5 9/43/5
f 49/6/3 8/5/3 24/21/3 63/44/3
f 63/44/3 24/21/3 25/23/3 70/45/3
f 70/45/3 25/23/3 26/25/3 71/46/3
f 71/46/3 26/25/3 27/27/3 72/47/3
f 72/47/3 27/27/3 28/29/3 73/48/3
f 73/48/3 28/29/3 29/31/3 74/49/3
f 74/49/3 29/31/3 30/33/3 75/50/3
f 75/50/3 30/33/3 31/35/3 76/51/3
f 76/51/3 31/35/3 32/37/3 77/52/3
f 77/52/3 32/37/3 33/39/3 78/53/3
f 78/53/3 33/39/3 34/8/3 79/7/3
f 41/54/1 2/55/1 11/56/1 86/57/1
f 86/57/1 11/56/1 12/58/1 93/59/1
f 93/59/1 12/58/1 13/60/1 94/61/1
f 94/61/1 13/60/1 14/62/1 95/63/1
f 95/63/1 14/62/1 15/64/1 96/65/1
f 96/65/1 15/64/1 16/66/1 97/67/1
f 97/67/1 16/66/1 17/68/1 98/69/1
f 98/69/1 17/68/1 18/70/1 99/71/1
f 99/71/1 18/70/1 19/72/1 100/73/1
f 100/73/1 19/72/1 20/74/1 101/75/1
f 101/75/1 20/74/1 21/2/1 102/1/1
f 1/76/1 35/77/1 92/78/1 10/79/1
f 35/77/1 36/80/1 91/81/1 92/78/1
f 36/80/1 37/82/1 90/83/1 91/81/1
f 37/82/1 38/84/1 89/85/1 90/83/1
f 38/84/1 39/86/1 88/87/1 89/85/1
f 39/86/1 40/88/1 87/89/1 88/87/1
f 40/88/1 41/54/1 86/57/1 87/89/1
f 7/41/3 55/90/3 69/91/3 23/42/3
f 55/90/3 54/92/3 68/93/3 69/91/3
f 54/92/3 53/94/3 67/95/3 68/93/3
f 53/94/3 52/96/3 66/97/3 67/95/3
f 52/96/3 51/98/3 65/99/3 66/97/3
f 51/98/3 50/100/3 64/101/3 65/99/3
f 50/100/3 49/6/3 63/44/3 64/101/3
f 5/15/4 62/102/4 35/103/4 1/104/4
f 62/102/4 61/105/4 36/106/4 35/103/4
f 61/105/4 60/107/4 37/108/4 36/106/4
f 60/107/4 59/109/4 38/110/4 37/108/4
f 59/109/4 58/111/4 39/112/4 38/110/4
f 58/111/4 57/113/4 40/114/4 39/112/4
f 57/113/4 56/10/4 41/12/4 40/114/4
f 22/14/3 85/115/3 62/102/3 5/15/3
f 85/115/3 84/116/3 61/105/3 62/102/3
f 84/116/3 83/117/3 60/107/3 61/105/3
f 83/117/3 82/118/3 59/109/3 60/107/3
f 82/118/3 81/119/3 58/111/3 59/109/3
f 81/119/3 80/120/3 57/113/3 58/111/3
f 80/120/3 79/7/3 56/10/3 57/113/3
f 3/121/2 48/122/2 55/90/2 7/41/2
f 48/122/2 47/123/2 54/92/2 55/90/2
f 47/123/2 46/124/2 53/94/2 54/92/2
f 46/124/2 45/125/2 52/96/2 53/94/2
f 45/125/2 44/126/2 51/98/2 52/96/2
f 44/126/2 43/127/2 50/100/2 51/98/2
f 43/127/2 42/4/2 49/6/2 50/100/2
f 9/128/1 108/129/1 48/122/1 3/121/1
f 108/129/1 107/130/1 47/123/1 48/122/1
f 107/130/1 106/131/1 46/124/1 47/123/1
f 106/131/1 105/132/1 45/125/1 46/124/1
f 105/132/1 104/133/1 44/126/1 45/125/1
f 104/133/1 103/134/1 43/127/1 44/126/1
f 103/134/1 102/1/1 42/4/1 43/127/1
f 102/135/5 42/136/5 49/137/5
f 102/135/5 49/137/5 63/138/5
f 101/139/5 102/135/5 63/138/5
f 101/139/5 63/138/5 70/140/5
f 100/141/5 101/139/5 70/140/5
f 100/141/5 70/140/5 71/142/5
f 99/143/5 100/141/5 71/142/5
f 99/143/5 71/142/5 72/144/5
f 98/145/5 99/143/5 72/144/5
f 98/145/5 72/144/5 73/146/5
f 97/147/5 98/145/5 73/146/5
f 97/147/5 73/146/5 74/148/5
f 96/149/5 97/147/5 74/148/5
f 96/149/5 74/148/5 75/150/5
f 95/151/5 96/149/5 75/150/5
f 95/151/5 75/150/5 76/152/5
f 94/153/5 95/151/5 76/152/5
f 94/153/5 76/152/5 77/154/5
f 93/155/5 94/153/5 77/154/5
f 93/155/5 77/154/5 78/156/5
f 86/157/5 93/155/5 78/156/5
f 86/157/5 78/156/5 79/158/5
f 41/159/5 86/157/5 79/158/5
f 41/159/5 79/158/5 56/160/5
f 108/161/4 9/162/4 23/163/4
f 108/161/4 23/163/4 69/164/4
f 107/165/4 108/161/4 69/164/4
f 107/165/4 69/164/4 68/166/4
f 106/167/4 107/165/4 68/166/4
f 106/167/4 68/166/4 67/168/4
f 105/169/4 106/167/4 67/168/4
f 105/169/4 67/168/4 66/170/4
f 104/171/4 105/169/4 66/170/4
f 104/171/4 66/170/4 65/172/4
f 103/173/4 104/171/4 65/172/4
f 103/173/4 65/172/4 64/174/4
f 102/135/4 103/173/4 64/174/4
f 102/135/4 64/174/4 63/138/4
f 85/175/2 22/176/2 10/177/2
f 85/175/2 10/177/2 92/178/2
f 84/179/2 85/175/2 92/178/2
f 84/179/2 92/178/2 91/180/2
f 83/181/2 84/179/2 91/180/2
f 83/181/2 91/180/2 90/182/2
f 82/183/2 83/181/2 90/182/2
f 82/183/2 90/182/2 89/184/2
f 81/185/2 82/183/2 89/184/2
f 81/185/2 89/184/2 88/186/2
f 80/187/2 81/185/2 88/186/2
f 80/187/2 88/186/2 87/188/2
f 79/158/2 80/187/2 87/188/2
f 79/158/2 87/188/2 86/157/2
o goal_1_back_Cube.009
v 330.790375 -0.204582 53.750000
v 280.767700 60.027008 53.750000
v 330.790375 -0.204582 -53.750000
v 280.767700 60.027008 -53.750000
v 400.104065 0.367729 53.750000
v 330.081421 60.131790 53.750000
v 400.104065 0.367729 -53.750000
v 330.081421 60.131790 -53.750000
vt 0.375000 0.000000
vt 0.625000 0.000000
vt 0.625000 0.250000
vt 0.375000 0.250000
vt 0.625000 0.500000
vt 0.375000 0.500000
vt 0.625000 0.750000
vt 0.375000 0.750000
vt 0.625000 1.000000
vt 0.375000 1.000000
vt 0.125000 0.500000
vt 0.125000 0.750000
vt 0.875000 0.500000
vt 0.875000 0.750000
vn -0.7693 -0.6389 0.0000
vn 0.0000 0.0000 -1.0000
vn 0.6492 0.7606 0.0000
vn 0.0000 0.0000 1.0000
vn 0.0083 -1.0000 0.0000
vn -0.0021 1.0000 0.0000
usemtl None
s off
f 109/189/7 110/190/7 112/191/7 111/192/7
f 111/192/8 112/191/8 116/193/8 115/194/8
f 115/194/9 116/193/9 114/195/9 113/196/9
f 113/196/10 114/195/10 110/197/10 109/198/10
f 111/199/11 115/194/11 113/196/11 109/200/11
f 116/193/12 112/201/12 110/202/12 114/195/12
o goal_wall_1_Cube.004
v 230.000015 182.000000 -172.000000
v 262.000031 182.000000 -172.000000
v 230.000015 182.000000 172.000000
v 262.000031 182.000000 172.000000
v 229.999985 0.999989 -172.000000
v 261.999969 0.999989 -172.000000
v 229.999985 0.999989 172.000000
v 261.999969 0.999989 172.000000
v 230.000015 182.000000 0.000000
v 262.000031 182.000000 0.000000
v 229.999985 0.999989 -86.000000
v 262.000031 182.000000 -86.000000
v 261.999969 0.999989 -86.000000
v 230.000015 182.000000 -86.000000
v 261.999969 0.999989 86.000000
v 230.000015 182.000000 86.000000
v 229.999985 0.999989 86.000000
v 262.000031 182.000000 86.000000
v 262.000000 91.500000 -172.000000
v 230.000000 91.499992 172.000000
v 262.000000 91.499992 172.000000
v 230.000000 91.500000 -172.000000
v 262.000000 91.500000 0.000000
v 230.000000 91.500000 0.000000
v 230.000000 91.500000 -86.000000
v 262.000000 91.500000 -86.000000
v 262.000000 91.500000 86.000000
v 230.000000 91.500000 86.000000
v 262.000000 46.249992 -172.000000
v 229.999985 46.249992 172.000000
v 262.000000 46.249992 -86.000000
v 262.000000 46.249992 86.000000
v 262.000000 46.249992 172.000000
v 229.999985 46.249992 -172.000000
v 229.999985 46.249992 -86.000000
v 229.999985 46.249992 86.000000
v 262.000031 182.000000 43.000000
v 230.000015 182.000000 43.000000
v 230.000000 91.500000 43.000000
v 262.000000 91.500000 43.000000
v 230.000015 182.000000 -43.000000
v 262.000031 182.000000 -43.000000
v 230.000000 91.500000 -43.000000
v 262.000000 91.500000 -43.000000
v 261.999969 0.999989 64.500000
v 230.000015 182.000000 64.500000
v 230.000000 91.500000 64.500000
v 262.000000 91.500000 64.500000
v 262.000000 46.249992 64.500000
v 229.999985 46.249992 64.500000
v 229.999985 0.999989 64.500000
v 262.000031 182.000000 64.500000
v 229.999985 0.999989 -64.500000
v 262.000031 182.000000 -64.500000
v 261.999969 0.999989 -64.500000
v 230.000015 182.000000 -64.500000
v 230.000000 91.500000 -64.500000
v 262.000000 91.500000 -64.500000
v 262.000000 46.249992 -64.500000
v 229.999985 46.249992 -64.500000
v 262.000000 68.874985 172.000000
v 230.000000 68.875000 -172.000000
v 230.000000 68.875000 0.000000
v 230.000000 68.875000 -86.000000
v 230.000000 68.875000 86.000000
v 262.000000 68.875000 -172.000000
v 230.000000 68.874992 172.000000
v 262.000000 68.875000 0.000000
v 262.000000 68.875000 -86.000000
v 262.000000 68.875000 86.000000
v 230.000000 68.875000 43.000000
v 262.000000 68.875000 43.000000
v 230.000000 68.875000 -43.000000
v 262.000000 68.875000 -43.000000
v 230.000000 68.875000 64.500000
v 262.000000 68.875000 64.500000
v 262.000000 68.875000 -64.500000
v 230.000000 68.875000 -64.500000
vt 0.812500 0.687500
vt 0.875000 0.687500
vt 0.875000 0.750000
vt 0.812500 0.750000
vt 0.375000 0.937500
vt 0.625000 0.937500
vt 0.625000 1.000000
vt 0.375000 1.000000
vt 0.375000 0.437500
vt 0.812500 0.625000
vt 0.875000 0.500000
vt 0.375000 0.250000
vt 0.250000 0.687500
vt 0.375000 0.687500
vt 0.375000 0.750000
vt 0.250000 0.750000
vt 0.625000 0.687500
vt 0.625000 0.750000
vt 0.375000 0.375000
vt 0.625000 0.375000
vt 0.625000 0.500000
vt 0.375000 0.500000
vt 0.375000 0.593750
vt 0.625000 0.593750
vt 0.625000 0.625000
vt 0.375000 0.625000
vt 0.250000 0.593750
vt 0.250000 0.625000
vt 0.812500 0.500000
vt 0.875000 0.562500
vt 0.812500 0.562500
vt 0.250000 0.500000
vt 0.375000 0.562500
vt 0.250000 0.562500
vt 0.625000 0.562500
vt 0.375000 0.484375
vt 0.796875 0.656250
vt 0.687500 0.875000
vt 0.375000 0.812500
vt 0.375000 0.671875
vt 0.625000 0.671875
vt 0.250000 0.671875
vt 0.812500 0.671875
vt 0.875000 0.671875
vt 0.750000 0.671875
vt 0.750000 0.687500
vt 0.218750 0.671875
vt 0.218750 0.687500
vt 0.218750 0.500000
vt 0.218750 0.562500
vt 0.750000 0.500000
vt 0.750000 0.562500
vt 0.750000 0.593750
vt 0.750000 0.625000
vt 0.218750 0.593750
vt 0.218750 0.625000
vt 0.375000 0.343750
vt 0.625000 0.343750
vt 0.218750 0.750000
vt 0.625000 0.875000
vt 0.375000 0.875000
vt 0.750000 0.750000
vt 0.125000 0.687500
vt 0.187500 0.687500
vt 0.187500 0.750000
vt 0.125000 0.750000
vt 0.625000 0.250000
vt 0.625000 0.312500
vt 0.375000 0.312500
vt 0.125000 0.500000
vt 0.187500 0.500000
vt 0.187500 0.562500
vt 0.125000 0.562500
vt 0.125000 0.671875
vt 0.187500 0.671875
vt 0.781250 0.671875
vt 0.781250 0.687500
vt 0.781250 0.500000
vt 0.781250 0.562500
vt 0.375000 0.906250
vt 0.625000 0.906250
vt 0.781250 0.750000
vt 0.250000 0.656250
vt 0.218750 0.656250
vt 0.750000 0.656250
vt 0.625000 0.656250
vt 0.375000 0.656250
vt 0.218750 0.578125
vt 0.250000 0.578125
vt 0.625000 0.578125
vt 0.750000 0.578125
vt 0.375000 0.578125
vt 0.703125 0.843750
vt 0.375000 0.765625
vt 0.875000 0.578125
vt 0.812500 0.578125
vt 0.187500 0.578125
vt 0.125000 0.578125
vt 0.781250 0.578125
vt 0.781250 0.656250
vt 0.781250 0.593750
vt 0.781250 0.625000
vt 0.000000 0.000000
vt 0.000000 0.000000
vt 0.000000 0.000000
vt 0.000000 0.000000
vt 0.000000 0.000000
vt 0.000000 0.000000
vt 0.000000 0.000000
vt 0.000000 0.000000
vt 0.000000 0.000000
vt 0.000000 0.000000
vt 0.000000 0.000000
vt 0.000000 0.000000
vt 0.000000 0.000000
vt 0.000000 0.000000
vt 0.000000 0.000000
vt 0.000000 0.000000
vt 0.000000 0.000000
vt 0.000000 0.000000
vn -1.0000 0.0000 0.0000
vn 0.0000 0.0000 1.0000
vn 0.0000 -1.0000 0.0000
vn 1.0000 -0.0000 0.0000
vn 0.0000 1.0000 0.0000
vn 0.0000 0.0000 -1.0000
usemtl Material.004
s off
f 152/203/13 133/204/13 123/205/13 146/206/13
f 149/207/14 146/208/14 123/209/14 124/210/14
f 129/211/15 127/212/15 121/213/15 122/214/15
f 143/215/16 134/216/16 120/217/16 137/218/16
f 134/216/17 132/219/17 119/220/17 120/217/17
f 135/221/18 138/222/18 117/223/18 118/224/18
f 158/225/17 157/226/17 125/227/17 126/228/17
f 160/229/16 158/225/16 126/228/16 139/230/16
f 150/231/13 121/213/13 127/232/13 151/233/13
f 135/234/16 118/224/16 128/235/16 142/236/16
f 118/224/17 117/223/17 130/237/17 128/235/17
f 171/238/15 169/239/15 127/212/15 129/211/15
f 124/210/15 123/209/15 133/240/15 131/241/15
f 168/242/17 162/243/17 132/219/17 134/216/17
f 164/244/16 168/242/16 134/216/16 143/215/16
f 166/245/13 167/246/13 133/204/13 152/203/13
f 162/243/13 163/247/13 144/248/13 132/219/13
f 192/249/16 164/244/16 143/215/16 186/250/16
f 182/251/16 135/234/16 142/236/16 185/252/16
f 117/223/13 138/253/13 141/254/13 130/237/13
f 157/226/13 159/255/13 140/256/13 125/227/13
f 190/257/16 160/229/16 139/230/16 184/258/16
f 182/259/18 178/260/18 138/222/18 135/221/18
f 186/250/16 143/215/16 137/218/16 177/261/16
f 120/217/14 119/220/14 136/262/14 137/263/14
f 132/219/13 144/248/13 136/264/13 119/220/13
f 131/265/16 148/266/16 149/267/16 124/268/16
f 122/214/18 121/269/18 150/270/18 145/271/18
f 122/272/16 145/273/16 147/274/16 129/275/16
f 161/276/16 165/277/16 148/266/16 131/265/16
f 191/278/13 166/245/13 152/203/13 181/279/13
f 178/280/13 150/231/13 151/233/13 180/281/13
f 177/282/14 183/283/14 146/208/14 149/207/14
f 181/279/13 152/203/13 146/206/13 183/284/13
f 184/258/16 139/230/16 156/285/16 188/286/16
f 125/227/13 140/256/13 155/287/13 154/288/13
f 139/230/16 126/228/16 153/289/16 156/285/16
f 126/228/17 125/227/17 154/288/17 153/289/17
f 193/290/16 174/291/16 160/229/16 190/257/16
f 172/292/13 173/293/13 159/255/13 157/226/13
f 174/291/16 170/294/16 158/225/16 160/229/16
f 170/294/17 172/292/17 157/226/17 158/225/17
f 131/241/15 133/240/15 167/295/15 161/296/15
f 188/286/16 156/285/16 164/244/16 192/249/16
f 154/288/13 155/287/13 163/247/13 162/243/13
f 156/285/16 153/289/16 168/242/16 164/244/16
f 153/289/17 154/288/17 162/243/17 168/242/17
f 128/235/17 130/237/17 172/292/17 170/294/17
f 142/236/16 128/235/16 170/294/16 174/291/16
f 151/233/13 127/232/13 169/297/13 176/298/13
f 130/237/13 141/254/13 173/293/13 172/292/13
f 185/252/16 142/236/16 174/291/16 193/290/16
f 129/275/16 147/274/16 175/299/16 171/300/16
f 180/281/13 151/233/13 176/298/13 194/301/13
f 141/254/13 180/281/13 194/301/13 173/293/13
f 147/274/16 185/252/16 193/290/16 175/299/16
f 155/287/13 187/302/13 191/278/13 163/247/13
f 173/293/13 194/301/13 189/303/13 159/255/13
f 140/256/13 179/304/13 187/302/13 155/287/13
f 144/248/13 181/279/13 183/284/13 136/264/13
f 137/263/14 136/262/14 183/283/14 177/282/14
f 159/255/13 189/303/13 179/304/13 140/256/13
f 138/253/13 178/280/13 180/281/13 141/254/13
f 163/247/13 191/278/13 181/279/13 144/248/13
f 148/266/16 186/250/16 177/261/16 149/267/16
f 145/271/18 150/270/18 178/260/18 182/259/18
f 145/273/16 182/251/16 185/252/16 147/274/16
f 165/277/16 192/249/16 186/250/16 148/266/16
f 188/305/17 191/306/17 192/307/17
f 161/308/18 167/309/18 165/310/18
f 194/311/15 190/312/15 189/313/15
f 191/306/14 166/314/14 165/310/14
f 190/312/17 189/313/17 179/315/17
f 184/316/15 179/315/15 190/312/15
f 175/317/18 194/311/18 193/318/18
f 184/316/17 187/319/17 188/305/17
f 187/319/15 188/305/15 191/306/15
f 175/317/18 176/320/18 194/311/18
f 171/321/18 169/322/18 176/320/18
f 191/306/18 192/307/18 165/310/18
f 166/314/18 165/310/18 167/309/18
f 194/311/15 193/318/15 190/312/15
f 171/321/14 175/317/14 176/320/14
f 179/315/15 184/316/15 187/319/15
