{"accessors":[{"bufferView":0,"byteOffset":0,"componentType":5126,"count":762,"max":[400.0,52.5,400.0],"min":[-400.0,-52.5,-400.0],"normalized":false,"type":"VEC3"},{"bufferView":1,"byteOffset":0,"componentType":5126,"count":762,"max":[1.0,0.000064662795921322,0.999866187572479,1.0],"min":[-0.999866664409637,-0.0000215766303881537,-0.999866902828217,-1.0],"normalized":false,"type":"VEC4"},{"bufferView":2,"byteOffset":0,"componentType":5126,"count":762,"max":[0.999866187572479,1.0,0.999866187572479],"min":[-0.999866724014282,-1.0,-0.9998659491539],"normalized":false,"type":"VEC3"},{"bufferView":3,"byteOffset":0,"componentType":5126,"count":762,"max":[1.0,1.0],"min":[0.0,0.0],"normalized":false,"type":"VEC2"},{"bufferView":4,"byteOffset":0,"componentType":5123,"count":762,"max":[761.0],"min":[0.0],"normalized":false,"type":"SCALAR"},{"bufferView":5,"byteOffset":0,"componentType":5126,"count":762,"max":[250.0,50.0,250.0],"min":[-250.0,-50.0,-250.0],"normalized":false,"type":"VEC3"},{"bufferView":6,"byteOffset":0,"componentType":5126,"count":762,"max":[1.0,0.0000647318956907839,0.999866127967834,1.0],"min":[-0.999867141246796,-0.0000215535783354426,-0.999866902828217,-1.0],"normalized":false,"type":"VEC4"},{"bufferView":7,"byteOffset":0,"componentType":5126,"count":762,"max":[0.999866187572479,1.0,0.999866187572479],"min":[-0.999866724014282,-1.0,-0.9998659491539],"normalized":false,"type":"VEC3"},{"bufferView":8,"byteOffset":0,"componentType":5126,"count":762,"max":[1.0,1.0],"min":[0.0,0.0],"normalized":false,"type":"VEC2"},{"bufferView":9,"byteOffset":0,"componentType":5123,"count":762,"max":[761.0],"min":[0.0],"normalized":false,"type":"SCALAR"}],"asset":{"generator":"Godot Engine v4.4.stable.steam@4c311cbee68c0b66ff8ebb8b0defdd9979dd2a41","version":"2.0"},"bufferViews":[{"buffer":0,"byteLength":9144,"byteOffset":0,"byteStride":12,"target":34962},{"buffer":0,"byteLength":12192,"byteOffset":9144,"byteStride":16,"target":34962},{"buffer":0,"byteLength":9144,"byteOffset":21336,"byteStride":12,"target":34962},{"buffer":0,"byteLength":6096,"byteOffset":30480,"byteStride":8,"target":34962},{"buffer":0,"byteLength":1524,"byteOffset":36576,"target":34963},{"buffer":0,"byteLength":9144,"byteOffset":38100,"byteStride":12,"target":34962},{"buffer":0,"byteLength":12192,"byteOffset":47244,"byteStride":16,"target":34962},{"buffer":0,"byteLength":9144,"byteOffset":59436,"byteStride":12,"target":34962},{"buffer":0,"byteLength":6096,"byteOffset":68580,"byteStride":8,"target":34962},{"buffer":0,"byteLength":1524,"byteOffset":74676,"target":34963}],"buffers":[{"byteLength":76200,"uri":"torus level0.bin"}],"extensionsUsed":["GODOT_single_root"],"materials":[{},{"extensions":{},"pbrMetallicRoughness":{"baseColorFactor":[0.524997174739838,0.766048133373261,0.900104463100433,1.0],"metallicFactor":0.0,"roughnessFactor":1.0}}],"meshes":[{"extras":{"targetNames":[]},"primitives":[{"attributes":{"NORMAL":2,"POSITION":0,"TANGENT":1,"TEXCOORD_0":3},"indices":4,"material":0,"mode":4}]},{"extras":{"targetNames":[]},"primitives":[{"attributes":{"NORMAL":7,"POSITION":5,"TANGENT":6,"TEXCOORD_0":8},"indices":9,"material":1,"mode":4}]}],"nodes":[{"children":[1,2],"name":"Node3D"},{"mesh":0,"name":"CSGCylinder3D2","translation":[0.0,50.0,0.0]},{"mesh":1,"name":"CSGCylinder3D23","translation":[0.0,50.0,0.0]}],"scene":0,"scenes":[{"nodes":[0]}]}