{"accessors":[{"bufferView":0,"byteOffset":0,"componentType":5126,"count":1950,"max":[0.5,1.0,0.5],"min":[-0.5,-1.0,-0.5],"normalized":false,"type":"VEC3"},{"bufferView":1,"byteOffset":0,"componentType":5126,"count":1950,"max":[1.0,0.0,1.0,1.0],"min":[-1.0,-0.0000215795153053477,-1.0,1.0],"normalized":false,"type":"VEC4"},{"bufferView":2,"byteOffset":0,"componentType":5126,"count":1950,"max":[1.0,1.0,1.0],"min":[-1.0,-1.0,-1.0],"normalized":false,"type":"VEC3"},{"bufferView":3,"byteOffset":0,"componentType":5126,"count":1950,"max":[1.0,1.0],"min":[0.0,0.0],"normalized":false,"type":"VEC2"},{"bufferView":4,"byteOffset":0,"componentType":5123,"count":10368,"max":[1949.0],"min":[0.0],"normalized":false,"type":"SCALAR"},{"bufferView":5,"byteOffset":0,"componentType":5126,"count":522,"max":[0.5,1.0,0.5],"min":[-0.5,-1.0,-0.5],"normalized":false,"type":"VEC3"},{"bufferView":6,"byteOffset":0,"componentType":5126,"count":522,"max":[1.0,0.0,1.0,1.0],"min":[-1.0,-0.0000215795153053477,-1.0,1.0],"normalized":false,"type":"VEC4"},{"bufferView":7,"byteOffset":0,"componentType":5126,"count":522,"max":[1.0,1.0,1.0],"min":[-1.0,-1.0,-1.0],"normalized":false,"type":"VEC3"},{"bufferView":8,"byteOffset":0,"componentType":5126,"count":522,"max":[1.0,1.0],"min":[0.0,0.0],"normalized":false,"type":"VEC2"},{"bufferView":9,"byteOffset":0,"componentType":5123,"count":2304,"max":[521.0],"min":[0.0],"normalized":false,"type":"SCALAR"},{"bufferView":10,"byteOffset":0,"componentType":5126,"count":2210,"max":[0.499433666467667,0.5,0.499433666467667],"min":[-0.499433666467667,-0.5,-0.499433666467667],"normalized":false,"type":"VEC3"},{"bufferView":11,"byteOffset":0,"componentType":5126,"count":2210,"max":[1.0,0.0,1.0,1.0],"min":[-1.0,-0.0000215795153053477,-1.0,1.0],"normalized":false,"type":"VEC4"},{"bufferView":12,"byteOffset":0,"componentType":5126,"count":2210,"max":[0.998868048191071,1.0,0.998868048191071],"min":[-0.998868823051453,-1.0,-0.998867213726044],"normalized":false,"type":"VEC3"},{"bufferView":13,"byteOffset":0,"componentType":5126,"count":2210,"max":[1.0,1.0],"min":[0.0,0.0],"normalized":false,"type":"VEC2"},{"bufferView":14,"byteOffset":0,"componentType":5123,"count":12672,"max":[2209.0],"min":[0.0],"normalized":false,"type":"SCALAR"},{"bufferView":15,"byteOffset":0,"componentType":5126,"count":2210,"max":[0.499433666467667,0.5,0.499433666467667],"min":[-0.499433666467667,-0.5,-0.499433666467667],"normalized":false,"type":"VEC3"},{"bufferView":16,"byteOffset":0,"componentType":5126,"count":2210,"max":[1.0,0.0,1.0,1.0],"min":[-1.0,-0.0000215795153053477,-1.0,1.0],"normalized":false,"type":"VEC4"},{"bufferView":17,"byteOffset":0,"componentType":5126,"count":2210,"max":[0.998868048191071,1.0,0.998868048191071],"min":[-0.998868823051453,-1.0,-0.998867213726044],"normalized":false,"type":"VEC3"},{"bufferView":18,"byteOffset":0,"componentType":5126,"count":2210,"max":[1.0,1.0],"min":[0.0,0.0],"normalized":false,"type":"VEC2"},{"bufferView":19,"byteOffset":0,"componentType":5123,"count":12672,"max":[2209.0],"min":[0.0],"normalized":false,"type":"SCALAR"},{"bufferView":20,"byteOffset":0,"componentType":5126,"count":1950,"max":[0.5,1.0,0.5],"min":[-0.5,-1.0,-0.5],"normalized":false,"type":"VEC3"},{"bufferView":21,"byteOffset":0,"componentType":5126,"count":1950,"max":[1.0,0.0,1.0,1.0],"min":[-1.0,-0.0000215795153053477,-1.0,1.0],"normalized":false,"type":"VEC4"},{"bufferView":22,"byteOffset":0,"componentType":5126,"count":1950,"max":[1.0,1.0,1.0],"min":[-1.0,-1.0,-1.0],"normalized":false,"type":"VEC3"},{"bufferView":23,"byteOffset":0,"componentType":5126,"count":1950,"max":[1.0,1.0],"min":[0.0,0.0],"normalized":false,"type":"VEC2"},{"bufferView":24,"byteOffset":0,"componentType":5123,"count":10368,"max":[1949.0],"min":[0.0],"normalized":false,"type":"SCALAR"},{"bufferView":25,"byteOffset":0,"componentType":5126,"count":1950,"max":[0.5,1.0,0.5],"min":[-0.5,-1.0,-0.5],"normalized":false,"type":"VEC3"},{"bufferView":26,"byteOffset":0,"componentType":5126,"count":1950,"max":[1.0,0.0,1.0,1.0],"min":[-1.0,-0.0000215795153053477,-1.0,1.0],"normalized":false,"type":"VEC4"},{"bufferView":27,"byteOffset":0,"componentType":5126,"count":1950,"max":[1.0,1.0,1.0],"min":[-1.0,-1.0,-1.0],"normalized":false,"type":"VEC3"},{"bufferView":28,"byteOffset":0,"componentType":5126,"count":1950,"max":[1.0,1.0],"min":[0.0,0.0],"normalized":false,"type":"VEC2"},{"bufferView":29,"byteOffset":0,"componentType":5123,"count":10368,"max":[1949.0],"min":[0.0],"normalized":false,"type":"SCALAR"},{"bufferView":30,"byteOffset":0,"componentType":5126,"count":180,"max":[0.49966299533844,0.977454006671906,0.499659985303879],"min":[-0.484546005725861,-0.976458013057709,-0.481177002191544],"normalized":false,"type":"VEC3"},{"bufferView":31,"byteOffset":0,"componentType":5123,"count":180,"max":[179.0],"min":[0.0],"normalized":false,"type":"SCALAR"},{"bufferView":32,"byteOffset":0,"componentType":5126,"count":180,"max":[0.49966299533844,0.955761015415192,0.499657988548279],"min":[-0.483292013406754,-0.955761015415192,-0.483291000127792],"normalized":false,"type":"VEC3"},{"bufferView":33,"byteOffset":0,"componentType":5123,"count":180,"max":[179.0],"min":[0.0],"normalized":false,"type":"SCALAR"},{"bufferView":34,"byteOffset":0,"componentType":5126,"count":180,"max":[0.457870990037918,0.471982002258301,0.49022901058197],"min":[-0.488739997148514,-0.489246010780334,-0.471307009458542],"normalized":false,"type":"VEC3"},{"bufferView":35,"byteOffset":0,"componentType":5123,"count":180,"max":[179.0],"min":[0.0],"normalized":false,"type":"SCALAR"}],"asset":{"generator":"Godot Engine v4.4.stable.steam@4c311cbee68c0b66ff8ebb8b0defdd9979dd2a41","version":"2.0"},"bufferViews":[{"buffer":0,"byteLength":23400,"byteOffset":0,"byteStride":12,"target":34962},{"buffer":0,"byteLength":31200,"byteOffset":23400,"byteStride":16,"target":34962},{"buffer":0,"byteLength":23400,"byteOffset":54600,"byteStride":12,"target":34962},{"buffer":0,"byteLength":15600,"byteOffset":78000,"byteStride":8,"target":34962},{"buffer":0,"byteLength":20736,"byteOffset":93600,"target":34963},{"buffer":0,"byteLength":6264,"byteOffset":114336,"byteStride":12,"target":34962},{"buffer":0,"byteLength":8352,"byteOffset":120600,"byteStride":16,"target":34962},{"buffer":0,"byteLength":6264,"byteOffset":128952,"byteStride":12,"target":34962},{"buffer":0,"byteLength":4176,"byteOffset":135216,"byteStride":8,"target":34962},{"buffer":0,"byteLength":4608,"byteOffset":139392,"target":34963},{"buffer":0,"byteLength":26520,"byteOffset":144000,"byteStride":12,"target":34962},{"buffer":0,"byteLength":35360,"byteOffset":170520,"byteStride":16,"target":34962},{"buffer":0,"byteLength":26520,"byteOffset":205880,"byteStride":12,"target":34962},{"buffer":0,"byteLength":17680,"byteOffset":232400,"byteStride":8,"target":34962},{"buffer":0,"byteLength":25344,"byteOffset":250080,"target":34963},{"buffer":0,"byteLength":26520,"byteOffset":275424,"byteStride":12,"target":34962},{"buffer":0,"byteLength":35360,"byteOffset":301944,"byteStride":16,"target":34962},{"buffer":0,"byteLength":26520,"byteOffset":337304,"byteStride":12,"target":34962},{"buffer":0,"byteLength":17680,"byteOffset":363824,"byteStride":8,"target":34962},{"buffer":0,"byteLength":25344,"byteOffset":381504,"target":34963},{"buffer":0,"byteLength":23400,"byteOffset":406848,"byteStride":12,"target":34962},{"buffer":0,"byteLength":31200,"byteOffset":430248,"byteStride":16,"target":34962},{"buffer":0,"byteLength":23400,"byteOffset":461448,"byteStride":12,"target":34962},{"buffer":0,"byteLength":15600,"byteOffset":484848,"byteStride":8,"target":34962},{"buffer":0,"byteLength":20736,"byteOffset":500448,"target":34963},{"buffer":0,"byteLength":23400,"byteOffset":521184,"byteStride":12,"target":34962},{"buffer":0,"byteLength":31200,"byteOffset":544584,"byteStride":16,"target":34962},{"buffer":0,"byteLength":23400,"byteOffset":575784,"byteStride":12,"target":34962},{"buffer":0,"byteLength":15600,"byteOffset":599184,"byteStride":8,"target":34962},{"buffer":0,"byteLength":20736,"byteOffset":614784,"target":34963},{"buffer":0,"byteLength":2160,"byteOffset":635520,"byteStride":12,"target":34962},{"buffer":0,"byteLength":360,"byteOffset":637680,"target":34963},{"buffer":0,"byteLength":2160,"byteOffset":638040,"byteStride":12,"target":34962},{"buffer":0,"byteLength":360,"byteOffset":640200,"target":34963},{"buffer":0,"byteLength":2160,"byteOffset":640560,"byteStride":12,"target":34962},{"buffer":0,"byteLength":360,"byteOffset":642720,"target":34963}],"buffers":[{"byteLength":643080,"uri":"space_station0.bin"}],"extensions":{"OMI_physics_shape":{"shapes":[{"convex":{"mesh":6},"type":"convex"},{"convex":{"mesh":7},"type":"convex"},{"convex":{"mesh":8},"type":"convex"}]}},"extensionsUsed":["GODOT_single_root","OMI_physics_body","OMI_physics_shape"],"materials":[{},{},{},{},{},{}],"meshes":[{"extras":{"targetNames":[]},"primitives":[{"attributes":{"NORMAL":2,"POSITION":0,"TANGENT":1,"TEXCOORD_0":3},"indices":4,"material":0,"mode":4}]},{"extras":{"targetNames":[]},"primitives":[{"attributes":{"NORMAL":7,"POSITION":5,"TANGENT":6,"TEXCOORD_0":8},"indices":9,"material":1,"mode":4}]},{"extras":{"targetNames":[]},"primitives":[{"attributes":{"NORMAL":12,"POSITION":10,"TANGENT":11,"TEXCOORD_0":13},"indices":14,"material":2,"mode":4}]},{"extras":{"targetNames":[]},"primitives":[{"attributes":{"NORMAL":17,"POSITION":15,"TANGENT":16,"TEXCOORD_0":18},"indices":19,"material":3,"mode":4}]},{"extras":{"targetNames":[]},"primitives":[{"attributes":{"NORMAL":22,"POSITION":20,"TANGENT":21,"TEXCOORD_0":23},"indices":24,"material":4,"mode":4}]},{"extras":{"targetNames":[]},"primitives":[{"attributes":{"NORMAL":27,"POSITION":25,"TANGENT":26,"TEXCOORD_0":28},"indices":29,"material":5,"mode":4}]},{"extras":{"targetNames":[]},"primitives":[{"attributes":{"POSITION":30},"indices":31,"mode":4}]},{"extras":{"targetNames":[]},"primitives":[{"attributes":{"POSITION":32},"indices":33,"mode":4}]},{"extras":{"targetNames":[]},"primitives":[{"attributes":{"POSITION":34},"indices":35,"mode":4}]}],"nodes":[{"children":[1],"name":"Space_Station"},{"children":[2,8,9,10,11,12,13,14],"extensions":{"OMI_physics_body":{"motion":{"type":"static"}}},"name":"StaticBody3D"},{"children":[3,4,5,6,7],"mesh":0,"name":"MeshInstance3D","scale":[20.0,20.0,20.0]},{"mesh":1,"name":"Nose","rotation":[-0.70710676908493,0.0,0.0,0.70710676908493],"scale":[0.200000002980232,0.200000002980232,0.200000002980232],"translation":[0.0,0.466966986656189,-0.497045010328293]},{"mesh":2,"name":"Right_Eye","scale":[0.100000001490116,0.100000001490116,0.100000001490116],"translation":[0.180000007152557,0.689999997615814,-0.419999986886978]},{"mesh":3,"name":"Left_Eye","scale":[0.100000001490116,0.100000001490116,0.100000001490116],"translation":[-0.180000007152557,0.689999997615814,-0.419999986886978]},{"mesh":4,"name":"Right_Arm","rotation":[0.0,0.0,0.544638991355896,0.838670611381531],"scale":[0.199999898672104,0.300000339746475,0.200000002980232],"translation":[0.600000023841858,0.0799999982118607,0.0]},{"mesh":5,"name":"Left_Arm","rotation":[0.0,0.0,-0.544638991355896,0.838670611381531],"scale":[0.199999898672104,0.300000339746475,0.200000002980232],"translation":[-0.600000023841858,0.0799999982118607,0.0]},{"extensions":{"OMI_physics_body":{"collider":{"shape":0}}},"name":"CollisionShape3D","scale":[20.0,20.0,20.0]},{"name":"Rotate"},{"extensions":{"OMI_physics_body":{"collider":{"shape":1}}},"name":"CollisionShape3D2","rotation":[-0.70710676908493,0.0,0.0,0.70710676908493],"scale":[4.0,4.0,4.0],"translation":[0.0,9.33934020996094,-9.94089984893799]},{"extensions":{"OMI_physics_body":{"collider":{"shape":2}}},"name":"CollisionShape3D3","scale":[2.0,2.0,2.0],"translation":[3.59999990463257,13.8000001907349,-8.39999961853027]},{"extensions":{"OMI_physics_body":{"collider":{"shape":2}}},"name":"CollisionShape3D4","scale":[2.0,2.0,2.0],"translation":[-3.59999990463257,13.8000001907349,-8.39999961853027]},{"extensions":{"OMI_physics_body":{"collider":{"shape":0}}},"matrix":[1.62695002555847,3.65418004989624,0.0,0.0,-5.4812798500061,2.44041991233826,0.0,0.0,0.0,0.0,4.0,0.0,12.0,1.60000002384186,0.0,1.0],"name":"CollisionShape3D5"},{"extensions":{"OMI_physics_body":{"collider":{"shape":0}}},"matrix":[1.62695002555847,-3.65418004989624,0.0,0.0,5.4812798500061,2.44041991233826,0.0,0.0,0.0,0.0,4.0,0.0,-12.0,1.60000002384186,0.0,1.0],"name":"CollisionShape3D6"}],"scene":0,"scenes":[{"nodes":[0]}]}